<svg width="32" height="32" viewBox="0 0 32 32" fill="none" xmlns="http://www.w3.org/2000/svg">
<path d="M0 6.4C0 4.15979 0 3.03969 0.435974 2.18404C0.819467 1.43139 1.43139 0.819467 2.18404 0.435974C3.03969 0 4.15979 0 6.4 0H25.6C27.8402 0 28.9603 0 29.816 0.435974C30.5686 0.819467 31.1805 1.43139 31.564 2.18404C32 3.03969 32 4.15979 32 6.4V25.6C32 27.8402 32 28.9603 31.564 29.816C31.1805 30.5686 30.5686 31.1805 29.816 31.564C28.9603 32 27.8402 32 25.6 32H6.4C4.15979 32 3.03969 32 2.18404 31.564C1.43139 31.1805 0.819467 30.5686 0.435974 29.816C0 28.9603 0 27.8402 0 25.6V6.4Z" fill="#222222"/>
<path d="M5.45611 26.6156L15.4796 13.5135H11.7239L5.45455 5.45455H10.4554L16.1256 12.6764L21.763 5.45455H26.6937L18.6206 15.6954L26.6937 26.614H21.6538L16.124 19.0455L10.4616 26.6156H5.45455H5.45611Z" fill="white"/>
</svg>
