<svg width="32" height="32" viewBox="0 0 32 32" fill="none" xmlns="http://www.w3.org/2000/svg">
<g clip-path="url(#clip0_2002_136)">
<path d="M9.58971 22.6668C9.17415 22.6668 8.81915 22.5197 8.52471 22.2254C8.2304 21.9309 8.08325 21.5759 8.08325 21.1604V10.84C8.08325 10.4244 8.2304 10.0694 8.52471 9.77495C8.81915 9.48065 9.17415 9.3335 9.58971 9.3335H22.4101C22.8257 9.3335 23.1807 9.48065 23.4751 9.77495C23.7694 10.0694 23.9166 10.4244 23.9166 10.84V21.1604C23.9166 21.5759 23.7694 21.9309 23.4751 22.2254C23.1807 22.5197 22.8257 22.6668 22.4101 22.6668H9.58971ZM12.6666 21.4168V10.5835H9.58971C9.52554 10.5835 9.46679 10.6102 9.41346 10.6637C9.35999 10.717 9.33325 10.7758 9.33325 10.84V21.1604C9.33325 21.2245 9.35999 21.2833 9.41346 21.3366C9.46679 21.3901 9.52554 21.4168 9.58971 21.4168H12.6666ZM13.9166 21.4168H22.4101C22.4743 21.4168 22.533 21.3901 22.5864 21.3366C22.6399 21.2833 22.6666 21.2245 22.6666 21.1604V10.84C22.6666 10.7758 22.6399 10.717 22.5864 10.6637C22.533 10.6102 22.4743 10.5835 22.4101 10.5835H13.9166V21.4168Z" fill="#363636"/>
</g>
<defs>
<clipPath id="clip0_2002_136">
<rect width="20" height="20" fill="white" transform="translate(6 6)"/>
</clipPath>
</defs>
</svg>
